HIERARCHY
ROOT hip
{
  OFFSET 0 0 0
  CHANNELS 6 Xposition Yposition Zposition Zrotation Yrotation Xrotation
  JOINT abdomen
  {
    OFFSET 0 20.6881 -0.73152
    CHANNELS 3 Zrotation Xrotation Yrotation
    JOINT chest
    {
      OFFSET 0 11.7043 -0.48768
      CHANNELS 3 Zrotation Xrotation Yrotation
      JOINT neck
      {
        OFFSET 0 22.1894 -2.19456
        CHANNELS 3 Zrotation Xrotation Yrotation
        JOINT head
        {
          OFFSET -0.24384 7.07133 1.2192
          CHANNELS 3 Zrotation Xrotation Yrotation
          JOINT leftEye
          {
            OFFSET 4.14528 8.04674 8.04672
            CHANNELS 3 Zrotation Xrotation Yrotation
            End Site
            {
              OFFSET 1 0 0
            }
          }
          JOINT rightEye
          {
            OFFSET -3.6576 8.04674 8.04672
            CHANNELS 3 Zrotation Xrotation Yrotation
            End Site
            {
              OFFSET 1 0 0
            }
          }
        }
      }
      JOINT rCollar
      {
        OFFSET -2.68224 19.2634 -4.8768
        CHANNELS 3 Zrotation Xrotation Yrotation
        JOINT rShldr
        {
          OFFSET -8.77824 -1.95073 1.46304
          CHANNELS 3 Zrotation Xrotation Yrotation
          JOINT rForeArm
          {
            OFFSET -28.1742 -1.7115 0.48768
            CHANNELS 3 Zrotation Xrotation Yrotation
            JOINT rHand
            {
              OFFSET -22.5879 0.773209 7.07136
              CHANNELS 3 Zrotation Xrotation Yrotation
              JOINT rThumb1
              {
                OFFSET -1.2192 -0.487915 3.41376
                CHANNELS 3 Zrotation Xrotation Yrotation
                JOINT rThumb2
                {
                  OFFSET -3.37035 -0.52449 3.41376
                  CHANNELS 3 Zrotation Xrotation Yrotation
                  End Site
                  {
                    OFFSET -1.78271 -1.18214 1.43049
                  }
                }
              }
              JOINT rIndex1
              {
                OFFSET -7.75947 0.938293 5.60832
                CHANNELS 3 Zrotation Xrotation Yrotation
                JOINT rIndex2
                {
                  OFFSET -2.54057 -0.884171 1.56538
                  CHANNELS 3 Zrotation Xrotation Yrotation
                  End Site
                  {
                    OFFSET -1.62519 -0.234802 1.16502
                  }
                }
              }
              JOINT rMid1
              {
                OFFSET -8.24714 1.18213 3.41376
                CHANNELS 3 Zrotation Xrotation Yrotation
                JOINT rMid2
                {
                  OFFSET -3.10165 -0.590103 1.0647
                  CHANNELS 3 Zrotation Xrotation Yrotation
                  End Site
                  {
                    OFFSET -2.48547 -0.328903 0.83742
                  }
                }
              }
              JOINT rRing1
              {
                OFFSET -8.82822 0.546677 1.51678
                CHANNELS 3 Zrotation Xrotation Yrotation
                JOINT rRing2
                {
                  OFFSET -2.60934 -0.819778 -0.0198488
                  CHANNELS 3 Zrotation Xrotation Yrotation
                  End Site
                  {
                    OFFSET -2.33842 -0.294052 0.168128
                  }
                }
              }
              JOINT rPinky1
              {
                OFFSET -8.27202 -0.0477905 -0.4584
                CHANNELS 3 Zrotation Xrotation Yrotation
                JOINT rPinky2
                {
                  OFFSET -1.82734 -0.647385 -0.700984
                  CHANNELS 3 Zrotation Xrotation Yrotation
                  End Site
                  {
                    OFFSET -1.69225 -0.51767 -0.607171
                  }
                }
              }
            }
          }
        }
      }
      JOINT lCollar
      {
        OFFSET 2.68224 19.2634 -4.8768
        CHANNELS 3 Zrotation Xrotation Yrotation
        JOINT lShldr
        {
          OFFSET 8.77824 -1.95073 1.46304
          CHANNELS 3 Zrotation Xrotation Yrotation
          JOINT lForeArm
          {
            OFFSET 28.1742 -1.7115 0.48768
            CHANNELS 3 Zrotation Xrotation Yrotation
            JOINT lHand
            {
              OFFSET 22.5879 0.773209 7.07136
              CHANNELS 3 Zrotation Xrotation Yrotation
              JOINT lThumb1
              {
                OFFSET 1.2192 -0.487915 3.41376
                CHANNELS 3 Zrotation Xrotation Yrotation
                JOINT lThumb2
                {
                  OFFSET 3.37035 -0.52449 3.41376
                  CHANNELS 3 Zrotation Xrotation Yrotation
                  End Site
                  {
                    OFFSET 1.78271 -1.18214 1.43049
                  }
                }
              }
              JOINT lIndex1
              {
                OFFSET 7.75947 0.938293 5.60832
                CHANNELS 3 Zrotation Xrotation Yrotation
                JOINT lIndex2
                {
                  OFFSET 2.54057 -0.884171 1.56538
                  CHANNELS 3 Zrotation Xrotation Yrotation
                  End Site
                  {
                    OFFSET 1.62519 -0.234802 1.16502
                  }
                }
              }
              JOINT lMid1
              {
                OFFSET 8.24714 1.18213 3.41376
                CHANNELS 3 Zrotation Xrotation Yrotation
                JOINT lMid2
                {
                  OFFSET 3.10165 -0.590103 1.0647
                  CHANNELS 3 Zrotation Xrotation Yrotation
                  End Site
                  {
                    OFFSET 2.48547 -0.328903 0.83742
                  }
                }
              }
              JOINT lRing1
              {
                OFFSET 8.82822 0.546677 1.51678
                CHANNELS 3 Zrotation Xrotation Yrotation
                JOINT lRing2
                {
                  OFFSET 2.60934 -0.819778 -0.0198488
                  CHANNELS 3 Zrotation Xrotation Yrotation
                  End Site
                  {
                    OFFSET 2.33842 -0.294052 0.168128
                  }
                }
              }
              JOINT lPinky1
              {
                OFFSET 8.27202 -0.0477905 -0.4584
                CHANNELS 3 Zrotation Xrotation Yrotation
                JOINT lPinky2
                {
                  OFFSET 1.82734 -0.647385 -0.700984
                  CHANNELS 3 Zrotation Xrotation Yrotation
                  End Site
                  {
                    OFFSET 1.69225 -0.51767 -0.607171
                  }
                }
              }
            }
          }
        }
      }
    }
  }
  JOINT rButtock
  {
    OFFSET -8.77824 4.35084 1.2192
    CHANNELS 3 Zrotation Xrotation Yrotation
    JOINT rThigh
    {
      OFFSET 0 -1.70687 -2.19456
      CHANNELS 3 Zrotation Xrotation Yrotation
      JOINT rShin
      {
        OFFSET 0 -36.8199 0.73152
        CHANNELS 3 Zrotation Xrotation Yrotation
        JOINT rFoot
        {
          OFFSET 0.73152 -45.1104 -5.12064
          CHANNELS 3 Zrotation Xrotation Yrotation
          End Site
          {
            OFFSET -1.1221 -3.69964 12.103
          }
        }
      }
    }
  }
  JOINT lButtock
  {
    OFFSET 8.77824 4.35084 1.2192
    CHANNELS 3 Zrotation Xrotation Yrotation
    JOINT lThigh
    {
      OFFSET 0 -1.70687 -2.19456
      CHANNELS 3 Zrotation Xrotation Yrotation
      JOINT lShin
      {
        OFFSET 0 -36.8199 0.73152
        CHANNELS 3 Zrotation Xrotation Yrotation
        JOINT lFoot
        {
          OFFSET -0.73152 -45.1104 -5.12064
          CHANNELS 3 Zrotation Xrotation Yrotation
          End Site
          {
            OFFSET 1.1221 -3.69964 12.103
          }
        }
      }
    }
  }
}
MOTION
Frames:	4
Frame Time:	0.03333
-12.1889 51.4188 158.40300000000002 -10.80989933013916 -54.304500579833984 10.221000671386719 -1.0141600370407104 11.491700172424316 15.557699203491211 -1.9981701374053955 -11.966200828552246 4.0325398445129395 -1.4177898168563843 13.626699447631836 9.0739107131958 8.82826042175293 -23.46270179748535 19.834501266479492 -0.0 0.0 -0.0 -0.0 0.0 -0.0 1.5543099305456026e-13 1.6489900536622443e-13 -6.485409540131493e-13 38.23290252685547 81.12100982666016 28.88719367980957 -26.315998077392578 -45.6382942199707 94.77799987792969 -35.68119812011719 -78.3746109008789 -43.08829879760742 -3.9754796676838566e-10 -6.837959976024877e-09 2.7836699612038274e-09 -8.581679811214826e-10 -1.0273099704249944e-08 4.687449539630961e-09 -3.9754796676838566e-10 -6.837959976024877e-09 2.783659747152001e-09 7.730909824371338 5.474879741668701 0.4173140823841095 -3.9754899372468344e-10 -6.837959976024877e-09 2.7836699612038274e-09 2.9055399894714355 0.9651829600334167 0.10290199518203735 -3.975389739618862e-10 -6.837959976024877e-09 2.7836699612038274e-09 10.27859878540039 0.73180091381073 0.025912316516041756 -3.9755099212612777e-10 -6.837959976024877e-09 2.783679953211049e-09 2.221669912338257 -0.733487069606781 -0.208919957280159 1.5543200949409697e-13 1.649029898092083e-13 -6.487339962099603e-13 -61.05149841308594 2.8273797035217285 -38.60710144042969 28.25929832458496 -32.4900016784668 -71.24439239501953 0.759099006652832 23.946300506591797 -3.578439712524414 -2.3355199996188958e-09 -1.0042899845075226e-10 4.5697601258609666e-09 -3.9589598266331905e-09 -3.438880014083878e-10 7.934669810083506e-09 -2.3355299916261174e-09 -1.0043200299181265e-10 4.569769895823583e-09 -7.730909824371338 5.474879741668701 -0.4173140823841095 -2.3355299916261174e-09 -1.0041899950463673e-10 4.5697601258609666e-09 -2.9055399894714355 0.9651829600334167 -0.10290199518203735 -2.3355199996188958e-09 -1.0043400139325698e-10 4.5697601258609666e-09 -10.27859878540039 0.73180091381073 -0.025912316516041756 -2.3355199996188958e-09 -1.0043200299181265e-10 4.5697601258609666e-09 -2.221669912338257 -0.733487069606781 0.208919957280159 -2.0321699480147914e-16 0.0 -3.8825099822884138e-19 -29.908700942993164 -27.940095901489258 -33.6161994934082 -4.6455397605896 81.93609619140625 7.471170425415039 -11.349300384521484 -26.553800582885742 -23.93440055847168 2.0321699480147914e-16 0.0 3.8825099822884138e-19 69.01110076904297 -42.520999908447266 67.23280334472656 2.9657094478607178 73.50010681152344 -2.6845598220825195 -0.2966899573802948 0.3254159986972809 -4.028360366821289
-12.2404 51.4005 158.458 -10.77500057220459 -54.282806396484375 10.22089958190918 -1.0288101434707642 11.455599784851074 15.51449966430664 -1.9920302629470825 -11.970999717712402 4.020710468292236 -1.3648898601531982 13.620800971984863 9.052828788757324 8.81255054473877 -23.47249984741211 19.78929901123047 -0.0 0.0 -0.0 -0.0 0.0 -0.0 8.166629536249942e-14 8.634369938866418e-14 -5.897029826257283e-13 38.30220031738281 81.12198638916016 28.853097915649414 -26.318496704101562 -45.63790512084961 94.77450561523438 -35.391502380371094 -78.31171417236328 -42.792598724365234 1.6526099932967497e-10 -1.5418098797681523e-08 4.036599943191277e-09 2.5706600043085004e-11 -2.4516900509752304e-08 6.84410972340288e-09 1.652679937347301e-10 -1.5418098797681523e-08 4.03658972913945e-09 7.730909824371338 5.474879741668701 0.4173140823841095 1.6526499613256362e-10 -1.5418098797681523e-08 4.036599943191277e-09 2.9055399894714355 0.9651829600334167 0.10290199518203735 1.6527199053761876e-10 -1.5418098797681523e-08 4.036599943191277e-09 10.27859878540039 0.73180091381073 0.025912316516041756 1.6525600332606416e-10 -1.5418098797681523e-08 4.0366101572431035e-09 2.221669912338257 -0.733487069606781 -0.208919957280159 8.151249450806877e-14 8.635559173124363e-14 -5.898569935443299e-13 -61.014896392822266 2.8321709632873535 -38.57849884033203 28.256301879882812 -32.46189880371094 -71.19920349121094 0.7648040652275085 24.029399871826172 -3.592470169067383 -3.346279919824724e-09 -1.9825599495426616e-10 6.3789298287986185e-09 -5.676189740455584e-09 -5.85000992092688e-10 1.1082999407108218e-08 -3.3462896897873406e-09 -1.9825599495426616e-10 6.378949812813062e-09 -7.730909824371338 5.474879741668701 -0.4173140823841095 -3.3462896897873406e-09 -1.982470021477667e-10 6.3789298287986185e-09 -2.9055399894714355 0.9651829600334167 -0.10290199518203735 -3.3462896897873406e-09 -1.9826097708008916e-10 6.3789298287986185e-09 -10.27859878540039 0.73180091381073 -0.025912316516041756 -3.3462699278175023e-09 -1.9825899255643264e-10 6.3789298287986185e-09 -2.221669912338257 -0.733487069606781 0.208919957280159 -2.0321699480147914e-16 0.0 -3.8825099822884138e-19 -29.885000228881836 -27.92300033569336 -33.5359992980957 -4.646240234375 81.94686126708984 7.480799198150635 -11.399800300598145 -26.560901641845703 -24.02680015563965 2.0321699480147914e-16 0.0 3.8825099822884138e-19 69.0197982788086 -42.559898376464844 67.21769714355469 2.9870998859405518 73.5902099609375 -2.706589937210083 -0.29707199335098267 0.2456350475549698 -3.961329698562622
-12.2869 51.38190000000001 158.509 -10.753600120544434 -54.23630142211914 10.236700057983398 -1.0231798887252808 11.413201332092285 15.460000038146973 -1.9828299283981323 -11.982799530029297 4.0063395500183105 -1.350310206413269 13.62769889831543 9.045670509338379 8.846370697021484 -23.466501235961914 19.780601501464844 -0.0 0.0 -0.0 -0.0 0.0 -0.0 1.912019838518162e-14 2.347750019024951e-14 -7.034290142558797e-13 38.532901763916016 81.0997085571289 28.653301239013672 -26.323596954345703 -45.6382942199707 94.77330017089844 -35.18149185180664 -78.26549530029297 -42.57809829711914 6.42113973103875e-10 -1.938400018275388e-08 4.130690012260629e-09 8.377209481658099e-10 -3.1396698574326365e-08 7.033139848289238e-09 6.421219667096523e-10 -1.938400018275388e-08 4.130690012260629e-09 7.730909824371338 5.474879741668701 0.4173140823841095 6.421189691074858e-10 -1.938400018275388e-08 4.130690012260629e-09 2.9055399894714355 0.9651829600334167 0.10290199518203735 6.421229659103744e-10 -1.938400018275388e-08 4.130690012260629e-09 10.27859878540039 0.73180091381073 0.025912316516041756 6.421080334106932e-10 -1.938400018275388e-08 4.130699782223246e-09 2.221669912338257 -0.733487069606781 -0.208919957280159 1.8929599031390458e-14 2.349029885808252e-14 -7.035959813904424e-13 -60.97169494628906 2.843039035797119 -38.55470275878906 28.251298904418945 -32.41629409790039 -71.1250991821289 0.7695999145507812 24.098997116088867 -3.604220390319824 -3.111859880888801e-09 -6.801579854887052e-10 6.399299756765231e-09 -5.27129007110716e-09 -1.4105399070984959e-09 1.1112800457624417e-08 -3.111879864903244e-09 -6.801549323753875e-10 6.3993099708170575e-09 -7.730909824371338 5.474879741668701 -0.4173140823841095 -3.1118698728960226e-09 -6.801509910836501e-10 6.399289986802614e-09 -2.9055399894714355 0.9651829600334167 -0.10290199518203735 -3.111879864903244e-09 -6.801610386020229e-10 6.399289986802614e-09 -10.27859878540039 0.73180091381073 -0.025912316516041756 -3.111859880888801e-09 -6.801599838901495e-10 6.399289986802614e-09 -2.221669912338257 -0.733487069606781 0.208919957280159 -2.0321699480147914e-16 0.0 -3.8825099822884138e-19 -29.83119773864746 -27.912399291992188 -33.446598052978516 -4.641849994659424 81.95282745361328 7.486649513244629 -11.467299461364746 -26.557598114013672 -24.15060043334961 2.0321699480147914e-16 0.0 3.8825099822884138e-19 69.05429077148438 -42.62110900878906 67.21520233154297 3.0082695484161377 73.6775894165039 -2.727950096130371 -0.29572799801826477 0.18156500160694122 -3.892669916152954
-12.332200000000002 51.363800000000005 158.555 -10.757498741149902 -54.17629623413086 10.280600547790527 -0.9973090291023254 11.364701271057129 15.394200325012207 -1.9705599546432495 -12.001699447631836 3.989410877227783 -1.3740497827529907 13.64739990234375 9.052430152893066 8.929719924926758 -23.444700241088867 19.808300018310547 -0.0 0.0 -0.0 -0.0 0.0 -0.0 -3.2207096283551687e-14 -2.3699299155619837e-14 -9.897189404833862e-13 38.92219924926758 81.05402374267578 28.290603637695312 -26.331098556518555 -45.63930130004883 94.77450561523438 -35.04930114746094 -78.23609924316406 -42.44300079345703 1.033009899842341e-09 -1.873579869027253e-08 3.06593994636728e-09 1.5778700568347404e-09 -3.0912701731722336e-08 5.254539470200825e-09 1.033020002871865e-09 -1.873579869027253e-08 3.06593994636728e-09 7.730909824371338 5.474879741668701 0.4173140823841095 1.033009899842341e-09 -1.873579869027253e-08 3.06593994636728e-09 2.9055399894714355 0.9651829600334167 0.10290199518203735 1.033020002871865e-09 -1.873579869027253e-08 3.06593994636728e-09 10.27859878540039 0.73180091381073 0.025912316516041756 1.033009899842341e-09 -1.873579869027253e-08 3.0659497163298965e-09 2.221669912338257 -0.733487069606781 -0.208919957280159 -3.231620090342162e-14 -2.36928007188485e-14 -9.899499839663428e-13 -60.92189407348633 2.860020399093628 -38.53569412231445 28.244199752807617 -32.35270309448242 -71.02249908447266 0.7734700441360474 24.155000686645508 -3.6136903762817383 -1.6322799778478725e-09 -1.5461301128283367e-09 4.630849481657151e-09 -2.7442497163576718e-09 -2.820509825696149e-09 8.023950393010182e-09 -1.6322898588327917e-09 -1.5461301128283367e-09 4.6308601397981874e-09 -7.730909824371338 5.474879741668701 -0.4173140823841095 -1.6322799778478725e-09 -1.5461301128283367e-09 4.630849481657151e-09 -2.9055399894714355 0.9651829600334167 -0.10290199518203735 -1.6322898588327917e-09 -1.5461301128283367e-09 4.630839711694534e-09 -10.27859878540039 0.73180091381073 -0.025912316516041756 -1.6322799778478725e-09 -1.5461301128283367e-09 4.630829941731918e-09 -2.221669912338257 -0.733487069606781 0.208919957280159 -2.0321699480147914e-16 0.0 -3.8825099822884138e-19 -29.747303009033203 -27.90839958190918 -33.348201751708984 -4.632329940795898 81.95386505126953 7.488710403442383 -11.551898002624512 -26.543699264526367 -24.30579948425293 2.0321699480147914e-16 0.0 3.8825099822884138e-19 69.11470031738281 -42.704498291015625 67.22550201416016 3.029169797897339 73.76220703125 -2.748619794845581 -0.2927110195159912 0.13321100175380707 -3.822390079498291
